<?xml version="1.0" encoding="UTF-8"?>
<svg id="Layer_1" xmlns="http://www.w3.org/2000/svg" version="1.1" xmlns:xlink="http://www.w3.org/1999/xlink" viewBox="0 0 129.19 131.67">
  <!-- Generator: Adobe Illustrator 30.4.0, SVG Export Plug-In . SVG Version: 2.1.4 Build 226)  -->
  <defs>
    <style>
      .st0, .st1 {
        fill: #5b75a7;
      }

      .st1, .st2, .st3, .st4, .st5, .st6, .st7 {
        fill-rule: evenodd;
      }

      .st2 {
        fill: #0092c8;
      }

      .st3 {
        fill: #fff;
      }

      .st8, .st9 {
        fill: none;
      }

      .st4 {
        fill: #bcbec0;
      }

      .st9 {
        stroke: #231f20;
        stroke-miterlimit: 22.93;
        stroke-width: .22px;
      }

      .st5 {
        fill: #00aeef;
      }

      .st6 {
        fill: #44c8f5;
      }

      .st7 {
        fill: #6c8cc7;
      }

      .st10 {
        clip-path: url(#clippath);
      }
    </style>
    <clipPath id="clippath">
      <path class="st8" d="M71.16,56.35l-1.67-4.97.04-2.26.95-3.53.04-1.59,2.9-.26,4.52.77-4.38,1.81-2.4.18-.5,2.4,2.22,7.6-8.09,5.65-8.45-5.61,2.17-7.78-.45-2.26-2.4-.23-4.29-1.81,4.61-.68,2.76.22.05,1.72.95,3.57.05,2.08-1.67,4.93,1.27,1.17,1.26-.81,7.87-.09,1.45.86,1.22-1.08h-.03ZM75.28,35.12l1.59-3.56,6.12-1.18-1.93,4.6-3.45,2.12-2.33-1.98ZM48.38,34.98l-1.95-4.64,6.06,1.25,1.54,3.44-2.04,2.13-3.62-2.17h.01ZM75.19,29.02l-1.86,4.46-6.53,1.33,1.5-1.97-3.69.89-3.57-.92,1.3,2-6.3-1.34-1.71-4.39-9.79-1.4-1.61,1.47,3.47,8.06,3.95,2.85-1.51,2.59-1.01,6.36,4.65,4.02,2.79-.96-1.19,8.71,1.53-.83,4.25.5-3.32.76-1.96,2.49,2.72-1.63,3.12.1-2.99,1.4-2.14,3.13,2.27-1.87,2.3-.49-3.01,2.59,1.68,1.25,3.11-1.42,3-3.21,2.83,3.11,3.33,1.52,1.68-1.18-2.95-2.67,2.15.43,2.46,2.02-2.11-3.14-3.26-1.43,3.23-.16,2.67,1.55-1.83-2.3-3.39-.93,4.16-.47,1.62.84-1.28-8.58,2.83.9,4.64-4.05-1.01-6.63-1.26-2.44,4.03-2.69,3.19-7.89-1.59-1.93-9.57,1.59h-.02Z"/>
    </clipPath>
  </defs>
  <polyline class="st9" points="64.64 56.25 64.54 68.27 71.32 70.06 70.84 68.05 72.89 56.54 64.48 56.57"/>
  <polygon class="st7" points="37.63 38.24 49.24 39.96 36.17 54.04 27.48 39.42 37.63 38.24"/>
  <polygon class="st7" points="103.48 26.19 83.73 19.84 88.07 16.74 103.48 26.19"/>
  <polygon class="st7" points="18.96 57.62 32.07 46.56 22.27 80.58 18.96 57.62"/>
  <polygon class="st7" points="29.04 79.77 38.51 102.31 34.1 81.48 39.25 79.36 39.74 58.45 35.66 65.64 34.03 81.33 29.04 79.77"/>
  <polygon class="st7" points="47.66 81.4 49.08 56.47 55.96 71.98 52.89 73.97 52.89 88.91 56.24 97.49 56.65 114.76 47.66 81.4"/>
  <polygon class="st7" points="73.1 71.97 79.95 56.26 81.74 81.66 72.58 114.51 73.09 97.29 76.36 88.89 76.36 74.02 73.1 71.97"/>
  <polygon class="st7" points="90.83 101.52 95.09 81.44 100.08 79.8 90.83 101.52"/>
  <polygon class="st7" points="89.61 58.85 93.57 65.56 95.3 81.51 90.12 79.07 89.61 58.85"/>
  <polygon class="st7" points="80.23 39.9 97.39 46.27 93.03 54.13 80.23 39.9"/>
  <polygon class="st7" points="110.3 57.6 97.23 46.35 107.07 80.51 110.3 57.6"/>
  <polygon class="st7" points="91.63 38.31 101.63 39.38 97.18 46.4 91.63 38.31"/>
  <polygon class="st7" points="92.93 31.07 114.35 48.83 100.63 31.56 109.05 32.76 83.73 19.83 80.31 22.33 96.7 27.08 92.93 31.07"/>
  <polygon class="st7" points="36.42 30.95 15.1 48.77 28.82 31.51 20.4 32.71 45.59 19.78 49.01 22.41 32.39 27.06 36.42 30.95"/>
  <polygon class="st7" points="25.84 26.21 45.59 19.83 41.24 16.76 25.84 26.21"/>
  <polygon class="st7" points="64.58 33.77 71.06 29.16 68.35 32.82 64.58 33.77"/>
  <polygon class="st7" points="64.62 33.74 58.11 29.1 60.82 32.75 64.62 33.74"/>
  <polygon class="st1" points="49.22 56.81 52.53 52.97 50.08 44.22 52.53 43.03 60.1 43.18 67.07 43.33 74.34 41.92 78.65 41.99 78.8 44.74 75.16 47.41 72.93 50.01 74.12 51.27 76.2 51.64 79.91 56.61 73.45 72 63.14 71.23 55.87 71.89 49.22 56.81"/>
  <polygon class="st1" points="89.61 59 90.73 101.32 88.59 79.17 85.75 73.38 79.96 56.72 82.09 51.44 81.38 49 79.05 39.91 85 32.37 101.6 39.39 91.51 38.32 86.9 36.47 80.23 39.91 93.05 54.06 96.79 61.5 93.5 65.6 89.61 59"/>
  <polygon class="st1" points="22.35 80.58 31.98 46.73 36.24 54.07 22.35 80.58"/>
  <polygon class="st1" points="40.64 79.03 43.48 73.56 49.29 56.84 47.83 49.14 48.89 42.61 39.58 58.61 39.09 79.2 38.51 102.15 40.64 79.03"/>
  <polygon class="st1" points="73.01 71.92 76.46 73.87 76.46 89.05 64.67 118.79 71.22 89.34 74.33 77.01 75.11 74.17 73.01 71.92"/>
  <polygon class="st1" points="72.2 16.28 64.56 33.86 81.53 17.05 72.2 16.28"/>
  <polygon class="st1" points="56.77 16.21 64.45 16.7 64.63 33.8 56.77 16.21"/>
  <polygon class="st1" points="66.77 34.82 73.31 33.49 75.24 28.91 84.71 27.51 85.83 28.67 92.9 31.06 96.98 27.09 76.94 21.3 66.77 34.82"/>
  <polygon class="st1" points="62.62 34.85 56.22 33.63 54.2 29.06 44.62 27.53 43.41 28.72 36.37 30.88 32.35 27.02 52.29 21.44 62.62 34.85"/>
  <polygon class="st1" points="27.77 39.43 44.29 32.3 45.29 34.55 46.39 37.19 49.66 39.53 49.29 40.06 42.65 36.47 37.68 38.26 27.77 39.43"/>
  <rect class="st0" x="45.27" y="29.45" width="10.26" height="8.01"/>
  <rect class="st0" x="73.31" y="29.6" width="10.26" height="8.01"/>
  <path class="st6" d="M29.26,79.75l2.25-16.52.93-1.8,3.25,4.22-1.62,15.76-4.8-1.66h-.01ZM43.49,73.35l5.7-16.31-1.53,24.55-5.73,4.54s1.56-12.78,1.56-12.78ZM77.1,21.46l2.41-2.39,4.21.77-3.44,2.51-3.19-.89h.01ZM49.14,39.94l-11.47-1.69,4.93-1.78s6.54,3.47,6.54,3.47ZM47.54,17.03l9.3-.76,7.75,17.45-6.51-4.62-5.75-7.63-3.37.91-3.43-2.59,2-2.76h.01ZM101.58,39.44l-4.41,6.95,13.08,11.1s-8.67-18.05-8.67-18.05ZM93.6,65.51l3.13-4.02,1.21,2.23,2.11,16.09-4.8,1.6-1.64-15.9h0ZM79.98,56.78l1.72,24.9,5.61,4.39-1.78-13.68s-5.55-15.61-5.55-15.61ZM91.56,38.33l-11.32,1.57,6.68-3.43,4.64,1.86ZM64.44,16.7l.18,17.03,7.65-17.43-7.84.4h.01ZM64.64,33.74l11.69-11.65-5.13,7.01s-6.56,4.64-6.56,4.64ZM64.62,118.9v-44.98l8.54-.98,1.82,1.28-5.09,21.12s-5.27,23.56-5.27,23.56ZM18.96,57.65l8.61-18.24,4.33,7.29-12.94,10.95Z"/>
  <polygon class="st5" points="81.37 48.99 76.72 52.99 79.92 56.8 82.14 51.43 81.37 48.99"/>
  <path class="st5" d="M41.91,86.13l5.78-4.6,9.06,33.44-11.07-14.63-3.76-14.21h0ZM32.05,46.43l5.55-8.19,11.58,1.7-17.13,6.49ZM49.59,39.5l.8.58-14.73,25.58-3.27-4.2,3.7-7.44,13.5-14.53h0ZM81.75,81.54l5.57,4.53-3.76,14.35-11,14.35,9.19-33.23ZM56.32,12.51l.53,3.75,7.61.44-8.14-4.19ZM109.11,32.79l-25.38-12.96,19.72,6.35,5.66,6.61ZM25.61,26.24l19.88-6.38-25.14,12.87,5.25-6.5h0ZM34.1,81.45l5.04-2.15-.66,22.62-4.38-20.47ZM90.11,79.01l5.01,2.39-4.32,20.55-.69-22.93h0ZM97.23,46.41l-5.52-8.1-11.48,1.59,17,6.51ZM81.51,17.05l6.49-.27-4.25,3.05-4.28-.73,2.05-2.05h-.01ZM107.18,80.55l-9.46-17.09-4.76-9.4,4.28-7.75s9.94,34.24,9.94,34.24ZM64.63,118.88v-44.98l-8.54-.98-1.86,1.25,4.66,18.89,5.74,25.81h0ZM114.33,48.81l-9.18-1.89-3.61-7.56-16.45-6.92,1.25-3.1-.61-.76,7.03,2.25,21.57,17.99h0ZM41.17,16.73l16.31.85.16.32-12.12,1.91-4.35-3.08ZM64.45,16.71l8.28-4.12-.46,3.75-7.82.37ZM14.85,49.04l9.11-2.03,3.61-7.49,16.73-7.21-1.33-3.21.44-.38.15-.15-7.25,2.33-21.46,18.13h0Z"/>
  <polygon class="st1" points="64.59 118.61 64.65 119.16 52.87 88.9 52.86 73.95 56.3 71.62 54.43 74.24 58.86 92.35 64.59 118.61"/>
  <polygon class="st2" points="70.82 68.1 71.22 70.03 73.31 72.24 72.46 66.95 70.82 68.1"/>
  <polygon class="st7" points="56.85 66.9 58.53 68.17 58.03 69.98 55.94 71.88 56.85 66.9"/>
  <polygon class="st5" points="47.84 49.07 52.49 53.06 49.29 56.88 47.2 51.54 47.84 49.07"/>
  <path class="st3" d="M64.63,63.53l2.83,3.11,3.33,1.52,1.68-1.18-2.95-2.67,2.15.43,2.46,2.02-2.12-3.14-3.26-1.43,3.23-.16,2.67,1.55-1.83-2.3-3.39-.93,4.17-.47,1.62.84-1.28-8.58,2.83.9,4.64-4.05-1.01-6.63-1.26-2.44,4.03-2.69,3.19-7.89-1.59-1.93-9.57,1.6-1.86,4.46-6.53,1.33,1.5-1.97-3.69.89-3.56-.92,1.3,2-6.3-1.34-1.71-4.39-9.8-1.41-1.61,1.47,3.47,8.06,3.95,2.86-1.51,2.59-1.01,6.36,4.65,4.02,2.79-.96-1.2,8.7,1.53-.83,4.25.5-3.32.76-1.96,2.49,2.72-1.63,3.12.1-2.99,1.4-2.14,3.13,2.27-1.87,2.3-.49-3.01,2.59,1.68,1.25,3.11-1.43,3-3.21h-.01ZM55.66,46.27l-4.29-1.81,4.61-.68,2.76.23.05,1.72.95,3.57.05,2.08-1.67,4.93,1.26,1.18,1.27-.81,7.86-.09,1.45.86,1.22-1.08-1.67-4.97.04-2.26.95-3.53.04-1.59,2.9-.26,4.52.77-4.39,1.81-2.4.18-.5,2.4,2.22,7.59-8.09,5.65-8.45-5.61,2.17-7.78-.45-2.26-2.4-.22v-.02ZM46.43,30.34l6.06,1.24,1.54,3.44-2.04,2.13-3.62-2.17-1.95-4.64h.01ZM75.28,35.12l1.59-3.56,6.12-1.18-1.93,4.6-3.45,2.12-2.33-1.98Z"/>
  <g class="st10">
    <g>
      <path class="st4" d="M57.82,46.69l-2.07.95-7-3.28,6.13-1.99,9.5.43.09-8.81v-2.43l5.18.44,3.8,1.56,4.15,3.54,3.46-2.16,1.9-4.58,3.63-1.21.09,2.25-2.85,5.62-4.06,3.11.78,1.73,1.47,4.84-.52,2.25-5.7,13.91-1.3,3.95-3.27,2.71-5.88-3.2-1.04-5.96-1.82-3.89,5.1-1.47.69-1.38s-.52-6.13,0-7.26h-9.33l-1.12.34h-.01Z"/>
      <polygon class="st4" points="42.63 29.01 46.68 30.46 48.58 34.86 52.09 37.02 50.31 40.22 46.37 37.35 42.63 29.01"/>
    </g>
  </g>
  <polygon class="st3" points="77.37 50.41 73.96 49.99 79.28 45.48 79.43 47.5 77.37 50.41"/>
  <polygon class="st3" points="62.32 81.93 59.56 77.87 59.56 74.04 58.14 77.34 57.83 81.17 56.36 76.49 56.76 73.47 55.15 75.99 55.19 77.42 54.04 74.09 57.92 69.95 64.5 68.21 71.23 70.04 75.06 74.31 74.28 77.07 74.21 76 72.52 73.38 72.92 76.41 71.45 81.12 71.14 77.61 69.67 74.13 69.58 77.87 67.09 82.06 67.4 78.63 65.88 75.65 64.59 80.68 63.39 75.74 61.88 78.63 62.32 81.93"/>
</svg>