<?xml version="1.0" encoding="UTF-8"?>
<svg id="Layer_1" xmlns="http://www.w3.org/2000/svg" version="1.1" viewBox="0 0 41.06 41.72">
  <!-- Generator: Adobe Illustrator 30.4.0, SVG Export Plug-In . SVG Version: 2.1.4 Build 226)  -->
  <defs>
    <style>
      .st0 {
        fill: #c5c5c5;
      }
    </style>
  </defs>
  <path class="st0" d="M18.78,6.57h3.49v12.04h-3.49V6.57ZM14.19,2.07v37.58h4.6v-16.54h3.49v16.54h4.6V2.07h-12.69Z"/>
  <polygon class="st0" points="31.53 2.07 31.53 6.57 31.53 35.15 31.53 39.65 39.7 39.65 39.7 35.15 36.13 35.15 36.13 6.57 39.7 6.57 39.7 2.07 31.53 2.07"/>
  <polygon class="st0" points="1.36 2.07 1.36 6.57 1.36 18.61 1.36 23.11 1.36 35.15 1.36 39.65 9.8 39.65 9.8 35.15 5.96 35.15 5.96 23.11 9.8 23.11 9.8 18.61 5.96 18.61 5.96 6.57 9.8 6.57 9.8 2.07 1.36 2.07"/>
</svg>