<?xml version="1.0" encoding="UTF-8"?>
<svg id="Layer_1" xmlns="http://www.w3.org/2000/svg" version="1.1" xmlns:xlink="http://www.w3.org/1999/xlink" viewBox="0 0 437.51 131.67">
  <!-- Generator: Adobe Illustrator 30.4.0, SVG Export Plug-In . SVG Version: 2.1.4 Build 226)  -->
  <defs>
    <style>
      .st0, .st1 {
        fill: #5b75a7;
      }

      .st1, .st2, .st3, .st4, .st5, .st6, .st7 {
        fill-rule: evenodd;
      }

      .st2 {
        fill: #0092c8;
      }

      .st8, .st3 {
        fill: #fff;
      }

      .st9, .st10 {
        fill: none;
      }

      .st4 {
        fill: #bcbec0;
      }

      .st10 {
        stroke: #231f20;
        stroke-miterlimit: 22.93;
        stroke-width: .22px;
      }

      .st5 {
        fill: #00aeef;
      }

      .st6 {
        fill: #44c8f5;
      }

      .st7 {
        fill: #6c8cc7;
      }

      .st11 {
        clip-path: url(#clippath);
      }
    </style>
    <clipPath id="clippath">
      <path class="st9" d="M94.18,56.35l-1.67-4.97.04-2.26.95-3.53.04-1.59,2.9-.26,4.52.77-4.38,1.81-2.4.18-.5,2.4,2.22,7.6-8.09,5.65-8.45-5.61,2.17-7.78-.45-2.26-2.4-.23-4.29-1.81,4.61-.68,2.76.22.05,1.72.95,3.57.05,2.08-1.67,4.93,1.27,1.17,1.26-.81,7.87-.09,1.45.86,1.22-1.08s-.03,0-.03,0ZM98.3,35.12l1.59-3.56,6.12-1.18-1.93,4.6-3.45,2.12-2.33-1.98ZM71.4,34.98l-1.95-4.64,6.06,1.25,1.54,3.44-2.04,2.13-3.62-2.17h.01ZM98.21,29.02l-1.86,4.46-6.53,1.33,1.5-1.97-3.69.89-3.57-.92,1.3,2-6.3-1.34-1.71-4.39-9.79-1.4-1.61,1.47,3.47,8.06,3.95,2.85-1.51,2.59-1.01,6.36,4.65,4.02,2.79-.96-1.19,8.71,1.53-.83,4.25.5-3.32.76-1.96,2.49,2.72-1.63,3.12.1-2.99,1.4-2.14,3.13,2.27-1.87,2.3-.49-3.01,2.59,1.68,1.25,3.11-1.42,3-3.21,2.83,3.11,3.33,1.52,1.68-1.18-2.95-2.67,2.15.43,2.46,2.02-2.11-3.14-3.26-1.43,3.23-.16,2.67,1.55-1.83-2.3-3.39-.93,4.16-.47,1.62.84-1.28-8.58,2.83.9,4.64-4.05-1.01-6.63-1.26-2.44,4.03-2.69,3.19-7.89-1.59-1.93-9.57,1.59h-.02Z"/>
    </clipPath>
  </defs>
  <g>
    <polyline class="st10" points="87.66 56.25 87.56 68.27 94.34 70.06 93.86 68.05 95.91 56.54 87.5 56.57"/>
    <polygon class="st7" points="60.65 38.24 72.26 39.96 59.19 54.04 50.5 39.42 60.65 38.24"/>
    <polygon class="st7" points="126.5 26.19 106.75 19.84 111.09 16.74 126.5 26.19"/>
    <polygon class="st7" points="41.98 57.62 55.09 46.56 45.29 80.58 41.98 57.62"/>
    <polygon class="st7" points="52.06 79.77 61.53 102.31 57.12 81.48 62.27 79.36 62.76 58.45 58.68 65.64 57.05 81.33 52.06 79.77"/>
    <polygon class="st7" points="70.68 81.4 72.1 56.47 78.98 71.98 75.91 73.97 75.91 88.91 79.26 97.49 79.67 114.76 70.68 81.4"/>
    <polygon class="st7" points="96.12 71.97 102.97 56.26 104.76 81.66 95.6 114.51 96.11 97.29 99.38 88.89 99.38 74.02 96.12 71.97"/>
    <polygon class="st7" points="113.85 101.52 118.11 81.44 123.1 79.8 113.85 101.52"/>
    <polygon class="st7" points="112.63 58.85 116.59 65.56 118.32 81.51 113.14 79.07 112.63 58.85"/>
    <polygon class="st7" points="103.25 39.9 120.41 46.27 116.05 54.13 103.25 39.9"/>
    <polygon class="st7" points="133.32 57.6 120.25 46.35 130.09 80.51 133.32 57.6"/>
    <polygon class="st7" points="114.65 38.31 124.65 39.38 120.2 46.4 114.65 38.31"/>
    <polygon class="st7" points="115.95 31.07 137.37 48.83 123.65 31.56 132.07 32.76 106.75 19.83 103.33 22.33 119.72 27.08 115.95 31.07"/>
    <polygon class="st7" points="59.44 30.95 38.12 48.77 51.84 31.51 43.42 32.71 68.61 19.78 72.03 22.41 55.41 27.06 59.44 30.95"/>
    <polygon class="st7" points="48.86 26.21 68.61 19.83 64.26 16.76 48.86 26.21"/>
    <polygon class="st7" points="87.6 33.77 94.08 29.16 91.37 32.82 87.6 33.77"/>
    <polygon class="st7" points="87.64 33.74 81.13 29.1 83.84 32.75 87.64 33.74"/>
    <polygon class="st1" points="72.24 56.81 75.55 52.97 73.1 44.22 75.55 43.03 83.12 43.18 90.09 43.33 97.36 41.92 101.67 41.99 101.82 44.74 98.18 47.41 95.95 50.01 97.14 51.27 99.22 51.64 102.93 56.61 96.47 72 86.16 71.23 78.89 71.89 72.24 56.81"/>
    <polygon class="st1" points="112.63 59 113.75 101.32 111.61 79.17 108.77 73.38 102.98 56.72 105.11 51.44 104.4 49 102.07 39.91 108.02 32.37 124.62 39.39 114.53 38.32 109.92 36.47 103.25 39.91 116.07 54.06 119.81 61.5 116.52 65.6 112.63 59"/>
    <polygon class="st1" points="45.37 80.58 55 46.73 59.26 54.07 45.37 80.58"/>
    <polygon class="st1" points="63.66 79.03 66.5 73.56 72.31 56.84 70.85 49.14 71.91 42.61 62.6 58.61 62.11 79.2 61.53 102.15 63.66 79.03"/>
    <polygon class="st1" points="96.03 71.92 99.48 73.87 99.48 89.05 87.69 118.79 94.24 89.34 97.35 77.01 98.13 74.17 96.03 71.92"/>
    <polygon class="st1" points="95.22 16.28 87.58 33.86 104.55 17.05 95.22 16.28"/>
    <polygon class="st1" points="79.79 16.21 87.47 16.7 87.65 33.8 79.79 16.21"/>
    <polygon class="st1" points="89.79 34.82 96.33 33.49 98.26 28.91 107.73 27.51 108.85 28.67 115.92 31.06 120 27.09 99.96 21.3 89.79 34.82"/>
    <polygon class="st1" points="85.64 34.85 79.24 33.63 77.22 29.06 67.64 27.53 66.43 28.72 59.39 30.88 55.37 27.02 75.31 21.44 85.64 34.85"/>
    <polygon class="st1" points="50.79 39.43 67.31 32.3 68.31 34.55 69.41 37.19 72.68 39.53 72.31 40.06 65.67 36.47 60.7 38.26 50.79 39.43"/>
    <rect class="st0" x="68.29" y="29.45" width="10.26" height="8.01"/>
    <rect class="st0" x="96.33" y="29.6" width="10.26" height="8.01"/>
    <path class="st6" d="M52.28,79.75l2.25-16.52.93-1.8,3.25,4.22-1.62,15.76-4.8-1.66h-.01ZM66.51,73.35l5.7-16.31-1.53,24.55-5.73,4.54s1.56-12.78,1.56-12.78ZM100.12,21.46l2.41-2.39,4.21.77-3.44,2.51-3.19-.89s.01,0,.01,0ZM72.16,39.94l-11.47-1.69,4.93-1.78s6.54,3.47,6.54,3.47ZM70.56,17.03l9.3-.76,7.75,17.45-6.51-4.62-5.75-7.63-3.37.91-3.43-2.59,2-2.76s.01,0,.01,0ZM124.6,39.44l-4.41,6.95,13.08,11.1s-8.67-18.05-8.67-18.05ZM116.62,65.51l3.13-4.02,1.21,2.23,2.11,16.09-4.8,1.6-1.64-15.9h0ZM103,56.78l1.72,24.9,5.61,4.39-1.78-13.68s-5.55-15.61-5.55-15.61ZM114.58,38.33l-11.32,1.57,6.68-3.43,4.64,1.86ZM87.46,16.7l.18,17.03,7.65-17.43-7.84.4s.01,0,.01,0ZM87.66,33.74l11.69-11.65-5.13,7.01s-6.56,4.64-6.56,4.64ZM87.64,118.9v-44.98l8.54-.98,1.82,1.28-5.09,21.12s-5.27,23.56-5.27,23.56ZM41.98,57.65l8.61-18.24,4.33,7.29-12.94,10.95Z"/>
    <polygon class="st5" points="104.39 48.99 99.74 52.99 102.94 56.8 105.16 51.43 104.39 48.99"/>
    <path class="st5" d="M64.93,86.13l5.78-4.6,9.06,33.44-11.07-14.63-3.76-14.21h0ZM55.07,46.43l5.55-8.19,11.58,1.7-17.13,6.49ZM72.61,39.5l.8.58-14.73,25.58-3.27-4.2,3.7-7.44,13.5-14.53h0ZM104.77,81.54l5.57,4.53-3.76,14.35-11,14.35,9.19-33.23ZM79.34,12.51l.53,3.75,7.61.44-8.14-4.19ZM132.13,32.79l-25.38-12.96,19.72,6.35,5.66,6.61ZM48.63,26.24l19.88-6.38-25.14,12.87,5.25-6.5h0ZM57.12,81.45l5.04-2.15-.66,22.62-4.38-20.47ZM113.13,79.01l5.01,2.39-4.32,20.55-.69-22.93h0ZM120.25,46.41l-5.52-8.1-11.48,1.59,17,6.51ZM104.53,17.05l6.49-.27-4.25,3.05-4.28-.73,2.05-2.05h-.01ZM130.2,80.55l-9.46-17.09-4.76-9.4,4.28-7.75s9.94,34.24,9.94,34.24ZM87.65,118.88v-44.98l-8.54-.98-1.86,1.25,4.66,18.89,5.74,25.81h0ZM137.35,48.81l-9.18-1.89-3.61-7.56-16.45-6.92,1.25-3.1-.61-.76,7.03,2.25,21.57,17.99h0ZM64.19,16.73l16.31.85.16.32-12.12,1.91-4.35-3.08ZM87.47,16.71l8.28-4.12-.46,3.75-7.82.37ZM37.87,49.04l9.11-2.03,3.61-7.49,16.73-7.21-1.33-3.21.44-.38.15-.15-7.25,2.33-21.46,18.13h0Z"/>
    <polygon class="st1" points="87.61 118.61 87.67 119.16 75.89 88.9 75.88 73.95 79.32 71.62 77.45 74.24 81.88 92.35 87.61 118.61"/>
    <polygon class="st2" points="93.84 68.1 94.24 70.03 96.33 72.24 95.48 66.95 93.84 68.1"/>
    <polygon class="st7" points="79.87 66.9 81.55 68.17 81.05 69.98 78.96 71.88 79.87 66.9"/>
    <polygon class="st5" points="70.86 49.07 75.51 53.06 72.31 56.88 70.22 51.54 70.86 49.07"/>
    <path class="st3" d="M87.65,63.53l2.83,3.11,3.33,1.52,1.68-1.18-2.95-2.67,2.15.43,2.46,2.02-2.12-3.14-3.26-1.43,3.23-.16,2.67,1.55-1.83-2.3-3.39-.93,4.17-.47,1.62.84-1.28-8.58,2.83.9,4.64-4.05-1.01-6.63-1.26-2.44,4.03-2.69,3.19-7.89-1.59-1.93-9.57,1.6-1.86,4.46-6.53,1.33,1.5-1.97-3.69.89-3.56-.92,1.3,2-6.3-1.34-1.71-4.39-9.8-1.41-1.61,1.47,3.47,8.06,3.95,2.86-1.51,2.59-1.01,6.36,4.65,4.02,2.79-.96-1.2,8.7,1.53-.83,4.25.5-3.32.76-1.96,2.49,2.72-1.63,3.12.1-2.99,1.4-2.14,3.13,2.27-1.87,2.3-.49-3.01,2.59,1.68,1.25,3.11-1.43,3-3.21h-.01ZM78.68,46.27l-4.29-1.81,4.61-.68,2.76.23.05,1.72.95,3.57.05,2.08-1.67,4.93,1.26,1.18,1.27-.81,7.86-.09,1.45.86,1.22-1.08-1.67-4.97.04-2.26.95-3.53.04-1.59,2.9-.26,4.52.77-4.39,1.81-2.4.18-.5,2.4,2.22,7.59-8.09,5.65-8.45-5.61,2.17-7.78-.45-2.26-2.4-.22v-.02h-.01ZM69.45,30.34l6.06,1.24,1.54,3.44-2.04,2.13-3.62-2.17-1.95-4.64h.01ZM98.3,35.12l1.59-3.56,6.12-1.18-1.93,4.6-3.45,2.12-2.33-1.98Z"/>
    <g class="st11">
      <g>
        <path class="st4" d="M80.84,46.69l-2.07.95-7-3.28,6.13-1.99,9.5.43.09-8.81v-2.43l5.18.44,3.8,1.56,4.15,3.54,3.46-2.16,1.9-4.58,3.63-1.21.09,2.25-2.85,5.62-4.06,3.11.78,1.73,1.47,4.84-.52,2.25-5.7,13.91-1.3,3.95-3.27,2.71-5.88-3.2-1.04-5.96-1.82-3.89,5.1-1.47.69-1.38s-.52-6.13,0-7.26h-9.33l-1.12.34h-.01Z"/>
        <polygon class="st4" points="65.65 29.01 69.7 30.46 71.6 34.86 75.11 37.02 73.33 40.22 69.39 37.35 65.65 29.01"/>
      </g>
    </g>
    <polygon class="st3" points="100.39 50.41 96.98 49.99 102.3 45.48 102.45 47.5 100.39 50.41"/>
    <polygon class="st3" points="85.34 81.93 82.58 77.87 82.58 74.04 81.16 77.34 80.85 81.17 79.38 76.49 79.78 73.47 78.17 75.99 78.21 77.42 77.06 74.09 80.94 69.95 87.52 68.21 94.25 70.04 98.08 74.31 97.3 77.07 97.23 76 95.54 73.38 95.94 76.41 94.47 81.12 94.16 77.61 92.69 74.13 92.6 77.87 90.11 82.06 90.42 78.63 88.9 75.65 87.61 80.68 86.41 75.74 84.9 78.63 85.34 81.93"/>
  </g>
  <g>
    <path class="st8" d="M164.15,76.47l-2.35-4.55h-11.71l-2.35,4.55h-5.92l11.43-21.29h5.38l11.38,21.29h-5.88.02ZM155.95,60.33l-3.9,7.5h7.82l-3.93-7.5h.02Z"/>
    <path class="st8" d="M181.02,76.47v-21.29h17.02c4.76,0,6.35,1.17,6.35,5.59v1.24c0,2.01-.89,3.09-2.63,3.44,1.77.28,3.15,1.46,3.15,3.93v1.4c0,4.46-1.86,5.7-6.62,5.7h-17.27v-.02ZM199.27,61.59c0-.86-.37-1.21-1.23-1.21h-11.85v3.49h11.91c.83,0,1.18-.37,1.18-1.26v-1.03h-.02v.02ZM199.76,69.02c0-.95-.34-1.32-1.4-1.32h-12.2v3.61h12.11c1.11,0,1.49-.37,1.49-1.23v-1.04h0v-.02Z"/>
    <path class="st8" d="M234.41,76.47l-6.47-6.62h-5.82v6.62h-5.16v-21.29h17.67c4.61,0,6.22,1.8,6.22,6.68v1.61c0,4.92-2.01,6.13-6.28,6.25l6.96,6.74h-7.11ZM235.73,62.22c0-1.23-.22-1.83-1.32-1.83h-12.29v5.16h12.29c.92,0,1.32-.43,1.32-1.58v-1.77h0v.02Z"/>
    <path class="st8" d="M273.77,76.47l-2.35-4.55h-11.71l-2.35,4.55h-5.92l11.43-21.29h5.38l11.38,21.29h-5.88.02ZM265.58,60.33l-3.9,7.5h7.84l-3.93-7.5Z"/>
    <polygon class="st8" points="290.64 76.47 290.64 55.18 295.82 55.18 295.82 71.28 311.23 71.28 311.23 76.47 290.64 76.47"/>
    <rect class="st8" x="322.43" y="55.18" width="5.16" height="21.29"/>
    <path class="st8" d="M345.17,76.47c-5.25,0-6.78-1.67-6.78-6.9v-7.48c0-5.25,1.52-6.9,6.78-6.9h11.42c5.1,0,6.78,1.64,6.78,6.9v7.48c0,5.24-1.67,6.9-6.78,6.9h-11.42ZM358.23,62.11c0-1.32-.46-1.74-1.67-1.74h-11.38c-1.18,0-1.64.4-1.64,1.74v7.5c0,1.31.43,1.71,1.64,1.71h11.38c1.23,0,1.67-.4,1.67-1.71v-7.5Z"/>
    <polygon class="st8" points="394.63 76.47 381.08 62.31 381.08 76.47 376.11 76.47 376.11 55.18 381.63 55.18 394.72 69.02 394.72 55.18 399.64 55.18 399.64 76.47 394.63 76.47"/>
  </g>
</svg>