<?xml version="1.0" encoding="UTF-8"?><svg id="Layer_1" xmlns="http://www.w3.org/2000/svg" xmlns:xlink="http://www.w3.org/1999/xlink" viewBox="0 0 167.8 131.67"><defs><style>.cls-1{fill:#00aeef;}.cls-1,.cls-2,.cls-3,.cls-4,.cls-5,.cls-6,.cls-7{fill-rule:evenodd;}.cls-2{fill:#44c8f5;}.cls-8{fill:#231f20;}.cls-3,.cls-9{fill:#5b75a7;}.cls-4{fill:#0092c8;}.cls-5{fill:#fff;}.cls-10,.cls-11{fill:none;}.cls-11{stroke:#231f20;stroke-miterlimit:22.93;stroke-width:.22px;}.cls-6{fill:#6c8cc7;}.cls-12{clip-path:url(#clippath);}.cls-7{fill:#bcbec0;}</style><clipPath id="clippath"><path class="cls-10" d="M90.46,43.84l-1.67-4.97.04-2.26.95-3.53.04-1.59,2.9-.26,4.52.77-4.38,1.81-2.4.18-.5,2.4,2.22,7.6-8.09,5.65-8.45-5.61,2.17-7.78-.45-2.26-2.4-.23-4.29-1.81,4.61-.68,2.76.22.05,1.72.95,3.57.05,2.08-1.67,4.93,1.27,1.17,1.26-.81,7.87-.09,1.45.86,1.22-1.08ZM94.58,22.61l1.59-3.56,6.12-1.18-1.93,4.6-3.45,2.12-2.33-1.98ZM67.68,22.47l-1.95-4.64,6.06,1.25,1.54,3.44-2.04,2.13-3.62-2.17ZM94.49,16.51l-1.86,4.46-6.53,1.33,1.5-1.97-3.69.89-3.57-.92,1.3,2-6.3-1.34-1.71-4.39-9.79-1.4-1.61,1.47,3.47,8.06,3.95,2.85-1.51,2.59-1.01,6.36,4.65,4.02,2.79-.96-1.19,8.71,1.53-.83,4.25.5-3.32.76-1.96,2.49,2.72-1.63,3.12.1-2.99,1.4-2.14,3.13,2.27-1.87,2.3-.49-3.01,2.59,1.68,1.25,3.11-1.42,3-3.21,2.83,3.11,3.33,1.52,1.68-1.18-2.95-2.67,2.15.43,2.46,2.02-2.11-3.14-3.26-1.43,3.23-.16,2.67,1.55-1.83-2.3-3.39-.93,4.16-.47,1.62.84-1.28-8.58,2.83.9,4.64-4.05-1.01-6.63-1.26-2.44,4.03-2.69,3.19-7.89-1.59-1.93-9.57,1.59Z"/></clipPath></defs><polyline class="cls-11" points="83.94 43.74 83.84 55.76 90.62 57.55 90.14 55.54 92.19 44.03 83.78 44.06"/><polygon class="cls-6" points="56.93 25.73 68.54 27.45 55.47 41.53 46.78 26.91 56.93 25.73"/><polygon class="cls-6" points="122.78 13.68 103.03 7.33 107.37 4.23 122.78 13.68"/><polygon class="cls-6" points="38.26 45.11 51.37 34.05 41.57 68.07 38.26 45.11"/><polygon class="cls-6" points="48.34 67.26 57.81 89.8 53.4 68.97 58.55 66.85 59.04 45.94 54.96 53.13 53.33 68.82 48.34 67.26"/><polygon class="cls-6" points="66.96 68.89 68.38 43.96 75.26 59.47 72.19 61.46 72.19 76.4 75.54 84.98 75.95 102.25 66.96 68.89"/><polygon class="cls-6" points="92.4 59.46 99.25 43.75 101.04 69.15 91.88 102 92.39 84.78 95.66 76.38 95.66 61.51 92.4 59.46"/><polygon class="cls-6" points="110.13 89.01 114.39 68.93 119.38 67.29 110.13 89.01"/><polygon class="cls-6" points="108.91 46.34 112.87 53.05 114.6 69 109.42 66.56 108.91 46.34"/><polygon class="cls-6" points="99.53 27.39 116.69 33.76 112.33 41.62 99.53 27.39"/><polygon class="cls-6" points="129.6 45.09 116.53 33.84 126.37 68 129.6 45.09"/><polygon class="cls-6" points="110.93 25.8 120.93 26.87 116.48 33.89 110.93 25.8"/><polygon class="cls-6" points="112.23 18.56 133.65 36.32 119.93 19.05 128.35 20.25 103.03 7.32 99.61 9.82 116 14.57 112.23 18.56"/><polygon class="cls-6" points="55.72 18.44 34.4 36.26 48.12 19 39.7 20.2 64.89 7.27 68.31 9.9 51.69 14.55 55.72 18.44"/><polygon class="cls-6" points="45.14 13.7 64.89 7.32 60.54 4.25 45.14 13.7"/><polygon class="cls-6" points="83.88 21.26 90.36 16.65 87.65 20.31 83.88 21.26"/><polygon class="cls-6" points="83.92 21.23 77.41 16.59 80.12 20.24 83.92 21.23"/><polygon class="cls-3" points="68.52 44.3 71.83 40.46 69.38 31.71 71.83 30.52 79.4 30.67 86.37 30.82 93.64 29.41 97.95 29.48 98.1 32.23 94.46 34.9 92.23 37.5 93.42 38.76 95.5 39.13 99.21 44.1 92.75 59.49 82.44 58.72 75.17 59.38 68.52 44.3"/><polygon class="cls-3" points="108.91 46.49 110.03 88.81 107.89 66.66 105.05 60.87 99.26 44.21 101.39 38.93 100.68 36.49 98.35 27.4 104.3 19.86 120.9 26.88 110.81 25.81 106.2 23.96 99.53 27.4 112.35 41.55 116.09 48.99 112.8 53.09 108.91 46.49"/><polygon class="cls-3" points="41.65 68.07 51.28 34.22 55.54 41.56 41.65 68.07"/><polygon class="cls-3" points="59.94 66.52 62.78 61.05 68.59 44.33 67.13 36.63 68.19 30.1 58.88 46.1 58.39 66.69 57.81 89.64 59.94 66.52"/><polygon class="cls-3" points="92.31 59.41 95.76 61.36 95.76 76.54 83.97 106.28 90.52 76.83 93.63 64.5 94.41 61.66 92.31 59.41"/><polygon class="cls-3" points="91.5 3.77 83.86 21.35 100.83 4.54 91.5 3.77"/><polygon class="cls-3" points="76.07 3.7 83.75 4.19 83.93 21.29 76.07 3.7"/><polygon class="cls-3" points="86.07 22.31 92.61 20.98 94.54 16.4 104.01 15 105.13 16.16 112.2 18.55 116.28 14.58 96.24 8.79 86.07 22.31"/><polygon class="cls-3" points="81.92 22.34 75.52 21.12 73.5 16.55 63.92 15.02 62.71 16.21 55.67 18.37 51.65 14.51 71.59 8.93 81.92 22.34"/><polygon class="cls-3" points="47.07 26.92 63.59 19.79 64.59 22.04 65.69 24.68 68.96 27.02 68.59 27.55 61.95 23.96 56.98 25.75 47.07 26.92"/><rect class="cls-9" x="64.57" y="16.94" width="10.26" height="8.01"/><rect class="cls-9" x="92.61" y="17.09" width="10.26" height="8.01"/><path class="cls-2" d="M48.56,67.24l2.25-16.52.93-1.8,3.25,4.22-1.62,15.76-4.8-1.66ZM62.79,60.84l5.7-16.31-1.53,24.55-5.73,4.54,1.56-12.78ZM96.4,8.95l2.41-2.39,4.21.77-3.44,2.51-3.19-.89ZM68.44,27.43l-11.47-1.69,4.93-1.78,6.54,3.47ZM66.84,4.52l9.3-.76,7.75,17.45-6.51-4.62-5.75-7.63-3.37.91-3.43-2.59,2-2.76ZM120.88,26.93l-4.41,6.95,13.08,11.1-8.67-18.05ZM112.9,53l3.13-4.02,1.21,2.23,2.11,16.09-4.8,1.6-1.64-15.9ZM99.28,44.27l1.72,24.9,5.61,4.39-1.78-13.68-5.55-15.61ZM110.86,25.82l-11.32,1.57,6.68-3.43,4.64,1.86ZM83.74,4.19l.18,17.03,7.65-17.43-7.84.4ZM83.94,21.23l11.69-11.65-5.13,7.01-6.56,4.64ZM83.92,106.39v-44.98l8.54-.98,1.82,1.28-5.09,21.12-5.27,23.56ZM38.26,45.14l8.61-18.24,4.33,7.29-12.94,10.95Z"/><polygon class="cls-1" points="100.67 36.48 96.02 40.48 99.22 44.29 101.44 38.92 100.67 36.48"/><path class="cls-1" d="M61.21,73.62l5.78-4.6,9.06,33.44-11.07-14.63-3.76-14.21ZM51.35,33.92l5.55-8.19,11.58,1.7-17.13,6.49ZM68.89,26.99l.8.58-14.73,25.58-3.27-4.2,3.7-7.44,13.5-14.53ZM101.05,69.03l5.57,4.53-3.76,14.35-11,14.35,9.19-33.23ZM75.62,0l.53,3.75,7.61.44-8.14-4.19ZM128.41,20.28l-25.38-12.96,19.72,6.35,5.66,6.61ZM44.91,13.73l19.88-6.38-25.14,12.87,5.25-6.5ZM53.4,68.94l5.04-2.15-.66,22.62-4.38-20.47ZM109.41,66.5l5.01,2.39-4.32,20.55-.69-22.93ZM116.53,33.9l-5.52-8.1-11.48,1.59,17,6.51ZM100.81,4.54l6.49-.27-4.25,3.05-4.28-.73,2.05-2.05ZM126.48,68.04l-9.46-17.09-4.76-9.4,4.28-7.75,9.94,34.24ZM83.93,106.37v-44.98l-8.54-.98-1.86,1.25,4.66,18.89,5.74,25.81ZM133.63,36.3l-9.18-1.89-3.61-7.56-16.45-6.92,1.25-3.1-.61-.76,7.03,2.25,21.57,17.99ZM60.47,4.22l16.31.85.16.32-12.12,1.91-4.35-3.08ZM83.75,4.2L92.03.08l-.46,3.75-7.82.37ZM34.15,36.53l9.11-2.03,3.61-7.49,16.73-7.21-1.33-3.21.44-.38.15-.15-7.25,2.33-21.46,18.13Z"/><polygon class="cls-3" points="83.89 106.1 83.95 106.65 72.17 76.39 72.16 61.44 75.6 59.11 73.73 61.73 78.16 79.84 83.89 106.1"/><polygon class="cls-4" points="90.12 55.59 90.52 57.52 92.61 59.73 91.76 54.44 90.12 55.59"/><polygon class="cls-6" points="76.15 54.39 77.83 55.66 77.33 57.47 75.24 59.37 76.15 54.39"/><polygon class="cls-1" points="67.14 36.56 71.79 40.55 68.59 44.37 66.5 39.03 67.14 36.56"/><path class="cls-5" d="M83.93,51.02l2.83,3.11,3.33,1.52,1.68-1.18-2.95-2.67,2.15.43,2.46,2.02-2.12-3.14-3.26-1.43,3.23-.16,2.67,1.55-1.83-2.3-3.39-.93,4.17-.47,1.62.84-1.28-8.58,2.83.9,4.64-4.05-1.01-6.63-1.26-2.44,4.03-2.69,3.19-7.89-1.59-1.93-9.57,1.6-1.86,4.46-6.53,1.33,1.5-1.97-3.69.89-3.56-.92,1.3,2-6.3-1.34-1.71-4.39-9.8-1.41-1.61,1.47,3.47,8.06,3.95,2.86-1.51,2.59-1.01,6.36,4.65,4.02,2.79-.96-1.2,8.7,1.53-.83,4.25.5-3.32.76-1.96,2.49,2.72-1.63,3.12.1-2.99,1.4-2.14,3.13,2.27-1.87,2.3-.49-3.01,2.59,1.68,1.25,3.11-1.43,3-3.21ZM74.96,33.76l-4.29-1.81,4.61-.68,2.76.23.05,1.72.95,3.57.05,2.08-1.67,4.93,1.26,1.18,1.27-.81,7.86-.09,1.45.86,1.22-1.08-1.67-4.97.04-2.26.95-3.53.04-1.59,2.9-.26,4.52.77-4.39,1.81-2.4.18-.5,2.4,2.22,7.59-8.09,5.65-8.45-5.61,2.17-7.78-.45-2.26-2.4-.22ZM65.73,17.83l6.06,1.24,1.54,3.44-2.04,2.13-3.62-2.17-1.95-4.64ZM94.58,22.61l1.59-3.56,6.12-1.18-1.93,4.6-3.45,2.12-2.33-1.98Z"/><g class="cls-12"><path class="cls-7" d="M77.12,34.18l-2.07.95-7-3.28,6.13-1.99,9.5.43.09-8.81v-2.43s5.18.44,5.18.44l3.8,1.56,4.15,3.54,3.46-2.16,1.9-4.58,3.63-1.21.09,2.25-2.85,5.62-4.06,3.11.78,1.73,1.47,4.84-.52,2.25-5.7,13.91-1.3,3.95-3.27,2.71-5.88-3.2-1.04-5.96-1.82-3.89,5.1-1.47.69-1.38s-.52-6.13,0-7.26h-9.33l-1.12.34Z"/><polygon class="cls-7" points="61.93 16.5 65.98 17.95 67.88 22.35 71.39 24.51 69.61 27.71 65.67 24.84 61.93 16.5"/></g><polygon class="cls-5" points="96.67 37.9 93.26 37.48 98.58 32.97 98.73 34.99 96.67 37.9"/><polygon class="cls-5" points="81.62 69.42 78.86 65.36 78.86 61.53 77.44 64.83 77.13 68.66 75.66 63.98 76.06 60.96 74.45 63.48 74.49 64.91 73.34 61.58 77.22 57.44 83.8 55.7 90.53 57.53 94.36 61.8 93.58 64.56 93.51 63.49 91.82 60.87 92.22 63.9 90.75 68.61 90.44 65.1 88.97 61.62 88.88 65.36 86.39 69.55 86.7 66.12 85.18 63.14 83.89 68.17 82.69 63.23 81.18 66.12 81.62 69.42"/><path class="cls-8" d="M14.53,131.67l-1.53-2.96h-7.62l-1.53,2.96H0l7.44-13.86h3.5l7.41,13.86h-3.83ZM9.19,121.16l-2.54,4.88h5.09l-2.56-4.88Z"/><path class="cls-8" d="M25.51,131.67v-13.86h11.08c3.1,0,4.13.76,4.13,3.64v.81c0,1.31-.58,2.01-1.71,2.24,1.15.18,2.05.95,2.05,2.56v.91c0,2.9-1.21,3.71-4.31,3.71h-11.24ZM37.39,121.98c0-.56-.24-.79-.8-.79h-7.71v2.27h7.75c.54,0,.77-.24.77-.82v-.67ZM37.71,126.82c0-.62-.22-.86-.91-.86h-7.94v2.35h7.88c.72,0,.97-.24.97-.8v-.68Z"/><path class="cls-8" d="M60.26,131.67l-4.21-4.31h-3.79v4.31h-3.36v-13.86h11.5c3,0,4.05,1.17,4.05,4.35v1.05c0,3.2-1.31,3.99-4.09,4.07l4.53,4.39h-4.63ZM61.12,122.39c0-.8-.14-1.19-.86-1.19h-8v3.36h8c.6,0,.86-.28.86-1.03v-1.15Z"/><path class="cls-8" d="M85.88,131.67l-1.53-2.96h-7.62l-1.53,2.96h-3.85l7.44-13.86h3.5l7.41,13.86h-3.83ZM80.55,121.16l-2.54,4.88h5.1l-2.56-4.88Z"/><polygon class="cls-8" points="96.86 131.67 96.86 117.81 100.23 117.81 100.23 128.29 110.26 128.29 110.26 131.67 96.86 131.67"/><rect class="cls-8" x="117.55" y="117.81" width="3.36" height="13.86"/><path class="cls-8" d="M132.35,131.67c-3.42,0-4.41-1.09-4.41-4.49v-4.87c0-3.42.99-4.49,4.41-4.49h7.43c3.32,0,4.41,1.07,4.41,4.49v4.87c0,3.41-1.09,4.49-4.41,4.49h-7.43ZM140.85,122.32c0-.86-.3-1.13-1.09-1.13h-7.41c-.77,0-1.07.26-1.07,1.13v4.88c0,.85.28,1.11,1.07,1.11h7.41c.8,0,1.09-.26,1.09-1.11v-4.88Z"/><polygon class="cls-8" points="164.54 131.67 155.72 122.45 155.72 131.67 152.49 131.67 152.49 117.81 156.08 117.81 164.6 126.82 164.6 117.81 167.8 117.81 167.8 131.67 164.54 131.67"/></svg>
