<?xml version="1.0" encoding="UTF-8"?>
<svg id="Layer_1" xmlns="http://www.w3.org/2000/svg" version="1.1" xmlns:xlink="http://www.w3.org/1999/xlink" viewBox="0 0 74.17 26.12">
  <!-- Generator: Adobe Illustrator 30.4.0, SVG Export Plug-In . SVG Version: 2.1.4 Build 226)  -->
  <defs>
    <style>
      .st0, .st1 {
        fill: #9c9b9b;
      }

      .st2 {
        fill: none;
      }

      .st1 {
        fill-rule: evenodd;
      }

      .st3 {
        clip-path: url(#clippath);
      }
    </style>
    <clipPath id="clippath">
      <rect class="st2" x="3.2" y="1.32" width="67.76" height="23.49"/>
    </clipPath>
  </defs>
  <g class="st3">
    <path class="st1" d="M13.17,1.45c.54-.08,1.08-.12,1.64-.13v7.76c-.59.02-1.14.17-1.64.41V1.45ZM11.02,1.99c.53-.19,1.07-.34,1.63-.45v8.26c-.85.6-1.45,1.52-1.63,2.58V1.99ZM4.02,17.37c-.53-1.33-.82-2.79-.82-4.31s.29-2.98.82-4.31v8.62ZM6.18,20.87c-.64-.71-1.19-1.51-1.63-2.36V7.61c.45-.85,1-1.65,1.63-2.36v15.62ZM8.34,22.77c-.58-.4-1.13-.85-1.63-1.35V4.7c.5-.5,1.05-.95,1.63-1.35v19.42ZM10.5,23.93c-.57-.23-1.12-.51-1.64-.82V3.02c.52-.32,1.07-.59,1.64-.82v21.74ZM12.65,24.58c-.56-.11-1.1-.26-1.63-.45v-10.4c.18,1.06.78,1.99,1.63,2.58v8.26ZM14.81,24.81c-.56,0-1.1-.05-1.64-.13v-8.04c.5.25,1.05.39,1.64.41v7.76ZM26.67,13.84c-.39,6-5.29,10.77-11.34,10.96v-7.77c1.77-.17,3.2-1.49,3.53-3.2h7.81ZM26.13,13.32v-3.89c.37,1.14.57,2.37.57,3.64v.25h-.57ZM23.97,13.32v-7.79c.65.78,1.2,1.64,1.63,2.57v5.22h-1.63ZM21.81,13.32V3.52c.59.42,1.13.9,1.63,1.42v8.37h-1.63ZM19.65,13.32V2.29c.57.25,1.12.54,1.64.87v10.15h-1.64ZM17.49,1.59c.56.12,1.11.29,1.63.49v11.24h-.19c0-.08,0-.17,0-.25,0-1.24-.56-2.35-1.45-3.08V1.59ZM15.33,1.32c.56.02,1.1.07,1.63.17v8.13c-.49-.29-1.04-.47-1.63-.53V1.32Z"/>
    <path class="st0" d="M65.01,10.58l-2.24-5.07-2.17,5.07h4.41ZM70.97,16.02h-3.51l-1.39-3.12h-6.46l-1.34,3.12h-3.45l6.25-13.7h3.44l6.45,13.7ZM48.56,4.63v3.9h1.77c1.28,0,2.13-.07,2.56-.22.43-.14.77-.37,1.01-.68.24-.31.37-.66.37-1.07,0-.5-.17-.91-.51-1.24-.34-.33-.77-.53-1.3-.61-.39-.06-1.16-.09-2.33-.09h-1.56ZM45.3,16.02V2.31h5.21c1.97,0,3.26.07,3.86.2.92.21,1.69.65,2.32,1.34.62.69.93,1.58.93,2.67,0,.84-.18,1.55-.54,2.12-.36.57-.81,1.02-1.36,1.35-.55.33-1.11.54-1.68.65-.78.13-1.89.2-3.36.2h-2.11v5.17h-3.26ZM28.7,16.02V2.31h4.88l2.88,9.35,2.85-9.35h4.89v13.7h-3.01V5.23s-3.18,10.79-3.18,10.79h-3.13l-3.16-10.79v10.79h-3.02Z"/>
    <path class="st0" d="M65.66,19.77h1.49c.32,0,.56-.03.74-.1.18-.06.31-.17.41-.32.09-.14.14-.3.14-.47,0-.25-.09-.45-.27-.61-.18-.16-.46-.24-.85-.24h-1.66v1.74ZM64.96,22.7v-5.25h2.33c.47,0,.82.05,1.07.14.24.1.44.26.58.5.15.24.22.5.22.79,0,.37-.12.69-.36.94-.24.26-.61.42-1.12.48.18.09.32.18.42.26.2.19.39.42.58.7l.91,1.43h-.87l-.69-1.09c-.2-.32-.37-.56-.5-.72-.13-.17-.25-.29-.35-.35-.1-.07-.21-.11-.31-.14-.08-.01-.21-.02-.39-.02h-.8v2.33h-.7ZM60.07,22.7v-5.25h3.79v.62h-3.1v1.61h2.9v.62h-2.9v1.79h3.22v.62h-3.92ZM56.66,22.7l-2.03-5.25h.75l1.36,3.82c.11.31.2.59.27.86.08-.29.17-.57.28-.86l1.42-3.82h.71l-2.05,5.25h-.72ZM49.96,20.16c0,.63.17,1.13.51,1.49.34.36.77.54,1.28.54s.95-.18,1.29-.55c.34-.37.5-.89.5-1.56,0-.43-.07-.8-.22-1.12-.15-.32-.36-.56-.63-.74-.28-.17-.59-.26-.94-.26-.49,0-.92.17-1.27.51-.36.34-.53.9-.53,1.69M49.24,20.15c0-.87.24-1.55.7-2.05.47-.49,1.07-.74,1.81-.74.49,0,.92.12,1.31.35.39.23.69.55.89.97.2.41.31.88.31,1.41s-.11,1.01-.32,1.43c-.22.42-.52.74-.91.95-.39.22-.82.32-1.28.32-.49,0-.94-.12-1.33-.36-.39-.24-.68-.56-.88-.98-.2-.41-.3-.85-.3-1.31M44.15,22.7v-5.25h.72l2.75,4.12v-4.12h.67v5.25h-.71l-2.76-4.12v4.12h-.67ZM38.85,22.7v-5.25h.72l2.76,4.12v-4.12h.67v5.25h-.71l-2.76-4.12v4.12h-.67ZM34.9,20.55h1.79l-.55-1.46c-.17-.44-.29-.81-.38-1.1-.07.34-.17.68-.29,1.01l-.58,1.54ZM33.39,22.7l2.01-5.25h.76l2.14,5.25h-.79l-.61-1.59h-2.21l-.57,1.59h-.74ZM28.7,22.7v-5.25h.7v2.17h2.72v-2.17h.7v5.25h-.7v-2.47h-2.72v2.47h-.7Z"/>
  </g>
</svg>